<?xml version="1.0" encoding="UTF-8"?>
<svg width="48px" height="48px" viewBox="0 0 48 48" version="1.1" xmlns="http://www.w3.org/2000/svg" xmlns:xlink="http://www.w3.org/1999/xlink">
    <title>build-custom-solutions</title>
    <g id="Page-1" stroke="none" stroke-width="1" fill="none" fill-rule="evenodd">
        <g id="build-custom-solutions">
            <circle id="Oval-Copy-14" fill="#1A73E8" cx="24" cy="24" r="24"></circle>
            <g id="sdk_gm_grey_24dp" transform="translate(14.000000, 14.000000)" fill="#FFFFFF" fill-rule="nonzero">
                <path d="M19.4888889,2.47777778 L17.9444444,0.611111111 C17.6444444,0.233333333 17.1888889,0 16.6666667,0 L3.33333333,0 C2.81111111,0 2.35555556,0.233333333 2.04444444,0.611111111 L0.511111111,2.47777778 C0.188888889,2.85555556 0,3.35555556 0,3.88888889 L0,17.7777778 C0,19 1,20 2.22222222,20 L17.7777778,20 C19,20 20,19 20,17.7777778 L20,3.88888889 C20,3.35555556 19.8111111,2.85555556 19.4888889,2.47777778 Z M8.82222222,14.0222222 L7.25555556,15.5888889 L3.33333333,11.6666667 L7.25555556,7.74444444 L8.82222222,9.31111111 L6.47777778,11.6666667 L8.82222222,14.0222222 Z M12.7888889,15.5888889 L11.2222222,14.0222222 L13.5777778,11.6666667 L11.2222222,9.31111111 L12.7888889,7.74444444 L16.7111111,11.6666667 L12.7888889,15.5888889 Z M2.67777778,3.33333333 L3.6,2.22222222 L16.4,2.22222222 L17.3333333,3.33333333 L2.67777778,3.33333333 Z" id="Shape"></path>
            </g>
        </g>
    </g>
</svg>