<?xml version="1.0" encoding="UTF-8"?>
<svg width="48px" height="48px" viewBox="0 0 48 48" version="1.1" xmlns="http://www.w3.org/2000/svg" xmlns:xlink="http://www.w3.org/1999/xlink">
    <title>Seamlessly-connect-to-critical-data</title>
    <g id="Page-1" stroke="none" stroke-width="1" fill="none" fill-rule="evenodd">
        <g id="Seamlessly-connect-to-critical-data">
            <g id="build-custom-solutions-copy" fill="#1A73E8">
                <circle id="Oval-Copy-14" cx="24" cy="24" r="24"></circle>
            </g>
            <g id="bigquery" transform="translate(13.000000, 13.000000)" fill="#FFFFFF">
                <path d="M10.7994365,0 C13.6636252,0 16.4105041,1.13779451 18.4357914,3.16308173 C20.4610786,5.18836895 21.5988731,7.93524791 21.5988731,10.7994365 C21.5988731,13.164967 20.8383161,15.3528598 19.5483941,17.131923 L19.606977,17.1831035 L23.8547554,21.4308818 C24.0484149,21.6271387 24.0484149,21.9425881 23.8547554,22.1388449 L23.8547554,22.1388449 L22.1388449,23.8547554 C21.9425881,24.0484149 21.6271387,24.0484149 21.4308818,23.8547554 L21.4308818,23.8547554 L17.1831035,19.606977 C17.1640766,19.5883346 17.1466831,19.5683403 17.1310163,19.5472167 C15.3528598,20.8383161 13.164967,21.5988731 10.7994365,21.5988731 C4.83507243,21.5988731 0,16.7638006 0,10.7994365 C0,4.83507243 4.83507243,0 10.7994365,0 Z M10.8074421,2.79586208 C6.38368514,2.79807324 2.79807324,6.38368514 2.79586208,10.8074421 C2.793655,15.2311991 6.37568398,18.8203903 10.7994365,18.8270357 C12.9294601,18.8302087 14.9731614,17.9854729 16.4793171,16.4793171 C17.9854729,14.9731614 18.8302087,12.9294601 18.8270357,10.7994365 C18.8203903,6.37568398 15.2311991,2.793655 10.8074421,2.79586208 Z" id="Combined-Shape" stroke="#1A73E8" stroke-width="0.8" fill-rule="nonzero"></path>
                <g id="Group-75" transform="translate(4.571638, 6.087747)">
                    <path d="M12.6146231,6.22056957 L12.6145955,7.95618235 C11.9081506,9.26040443 10.8332614,10.335901 9.52950468,11.0430952 L9.52914854,6.22056957 L12.6146231,6.22056957 Z" id="Combined-Shape"></path>
                    <path d="M3.08613131,4.32229773 L3.08574357,11.2138389 C1.82783566,10.6097215 0.760879545,9.67134369 5.21804822e-15,8.51383012 L0.000656748429,4.32229773 L3.08613131,4.32229773 Z" id="Combined-Shape"></path>
                    <path d="M8.20116845,0 L8.20114315,11.6819499 C7.54561668,11.8651039 6.85451964,11.9630302 6.14055069,11.9630302 C5.54660449,11.9630302 4.96848673,11.8952606 4.41350815,11.7670321 L4.41412615,0 L8.20116845,0 Z" id="Combined-Shape"></path>
                </g>
            </g>
        </g>
    </g>
</svg>